<svg version="1.1" viewBox="0 0 202.1 75" id="brand" xmlns="http://www.w3.org/2000/svg">
<path d="M83.7,45.3c10.2,0,15.9-7.3,15.9-17.4s-5.6-17.4-15.9-17.4-16,7.2-16,17.4,5.8,17.4,16,17.4ZM75.2,17.9c1.4-1.9,4.3-3.6,8.7-3.6s6.5,1.3,8.2,3.8c1.7,2.4,2.6,5.5,2.6,9.9s-.9,7.5-2.6,9.9c-1.7,2.5-4.4,3.8-8.4,3.8s-6.8-1.3-8.7-3.8c-1.3-1.7-2.4-5.2-2.4-9.9s.9-7.9,2.5-10.1Z"/>
<path d="M18.6,11.1L5.4,44.8h4.6l3.7-10.1h14.3l3.8,10.1h4.6L23.2,11.1h-4.6ZM15.2,30.9l3.8-10.1c.8-2.1,1.3-3.7,1.9-5.4h0c.5,1.4,1.3,3.7,1.9,5.4l3.8,10.1h-11.4Z"/>
<path d="m148.7 44.8h4.6l-13.1-33.7h-4.6l-13.2 33.7h4.6l3.7-10.1h14.3l3.8 10.1zm-16.6-13.9 3.8-10.1c0.8-2.1 1.3-3.7 1.9-5.4 0.5 1.4 1.3 3.7 1.9 5.4l3.8 10.1h-11.4z"/>
<path d="m59.1 29.2c2.9-1 5.2-4.1 5.2-8.2 0-9.1-7.3-9.9-13.3-9.9h-11.4v33.7h4.3v-14h7.5c5.9 0 7.7 1.3 7.7 6s0.3 6.3 1.4 7.9h4.8s0-0.2 0-0.2c-1.6-2.1-1.9-4.4-1.9-8.3s-1.2-5.9-4.4-7.1zm-8.2-2.1h-7v-12.3h7.1c4.1 0 9 0 9 6.3 0 5.6-4.9 5.9-9 5.9z"/>
<path d="m122.1 11.1-5.7 9.6c-1.1 1.8-2.1 3.7-3.5 6.2-1.2-2.3-3.2-5.6-3.5-6.2l-5.7-9.6h-5l12.1 19.3v14.4h4.4v-14.4l12.1-19.3h-5.1z"/>
<rect x="127.4" y="57.2" width="1.8" height="9.9"/>
<path d="M138,62.8c0,2.1-.9,3.1-2.6,3.1s-.7,0-1,0c-.3-.1-.5-.3-.8-.5-.2-.2-.3-.4-.4-.6-.1-.2-.2-.5-.2-.7v-6.8h-1.9v7.2c0,.3.1.7.2,1,0,.4.3.6.5.9.4.3.8.6,1.3.8s1.1.3,1.8.2c.7,0,1.4-.1,1.9-.4s.9-.7,1.2-1.3v1.5h1.8v-9.9h-1.8v5.6Z"/>
<path d="M152.7,57c-.6,0-1,.1-1.4.2-.4.1-.7.3-1,.6-.2.2-.4.4-.6.6s-.3.5-.4.7c-.2-.7-.6-1.2-1.2-1.6-.5-.4-1.2-.6-2-.6s-1.7.3-2.3.8c-.3.3-.6.6-.7,1v-1.5h-1.6v9.9h1.8v-5.5c0-.7.1-1.3.2-1.7.2-.4.4-.7.7-1,.4-.4.9-.5,1.5-.5s.6,0,.9,0c.3.1.6.2.8.5.2.2.3.4.4.6.1.2.1.5.2.7v6.8h1.8v-5.5c0-.7.1-1.3.2-1.7.2-.4.4-.7.7-1,.4-.4.9-.5,1.5-.5s.6,0,.9,0c.3.1.6.2.8.5.2.2.3.4.4.6,0,.2.1.5.1.7v6.8h1.8v-6.4c0-1.2-.3-2.2-.9-2.8-.6-.6-1.4-.9-2.6-.9Z"/>
<path d="M112.7,58.5c-.7-1-1.8-1.5-3.2-1.5s-1.7.2-2.4.6c-.7.4-1.2,1-1.6,1.8-.3.8-.5,1.7-.5,2.8s.2,1.9.6,2.7c.4.8.9,1.4,1.6,1.8.7.4,1.5.6,2.4.6s1.3-.1,1.8-.4,1-.7,1.3-1.3v1.5h1.8v-13.9h-1.8v5.3ZM112.1,65c-.5.6-1.2,1-2.1,1s-1.3-.2-1.8-.5c-.5-.3-.8-.7-1-1.3-.2-.6-.3-1.2-.3-2.1,0-1.3.2-2.2.7-2.8.5-.6,1.2-.9,2.3-.9s1.8.4,2.2,1.1c.5.6.7,1.5.7,2.7s-.2,2.2-.7,2.8Z"/>
<rect x="127.4" y="53.2" width="1.8" height="1.8"/>
<path d="M123.8,58.5c-.7-1-1.8-1.5-3.2-1.5s-1.7.2-2.4.6c-.7.4-1.2,1-1.6,1.8-.4.8-.6,1.6-.6,2.7s.2,2,.6,2.8c.4.8.9,1.4,1.6,1.8.7.5,1.4.7,2.5.6.7,0,1.3-.1,1.8-.4s.9-.7,1.3-1.3v1.5h1.8v-13.9h-1.8v5.3ZM123,65c-.5.6-1.2,1-2.1,1s-1.4-.2-1.8-.5c-.4-.3-.7-.7-.9-1.3-.2-.6-.3-1.3-.3-2.1,0-1.2.2-2.2.7-2.8.5-.6,1.2-.9,2.3-.9s1.8.4,2.2,1.1c.4.7.6,1.6.6,2.7s-.2,2.2-.7,2.8Z"/>
<path d="M97.7,53.2l-5.5,13.9h1.9l1.5-4.2h5.9l1.6,4.2h1.9l-5.4-13.9h-1.9ZM96.2,61.4l1.6-4.2c.4-.9.6-1.7.8-2.2.3.8.6,1.5.8,2.2l1.6,4.2h-4.8Z"/>
<path d="M85.4,62.4c-.2.7-.5,1.6-.9,2.6-.4-1.1-.6-2-.9-2.6l-1.9-5.3h-1.9l3.9,9.8c-.3.6-.5,1.1-.6,1.4,0,.3-.3.5-.5.7-.2.2-.4.3-.6.3-.4,0-.8-.1-1.2-.2v1.6c.5.1,1,.2,1.5.2s.8,0,1.2-.3c.3-.2.6-.5.9-1,.3-.4.5-1,.8-1.8l4-10.8h-1.9l-1.9,5.4Z"/>
<path d="M77.5,57.5c-.7-.4-1.5-.7-2.3-.7-1.4,0-2.4.5-3.2,1.6v-5.3h-1.8v13.9h1.8v-1.4c.4.5.8.9,1.4,1.2.5.3,1.1.4,1.8.4s1.7-.2,2.3-.6c.7-.4,1.2-1,1.6-1.8.4-.8.6-1.7.6-2.8s-.2-1.9-.6-2.7c-.4-.8-.9-1.4-1.6-1.8ZM77.5,64.1c-.2.6-.5,1-.9,1.3-.4.3-1,.5-1.8.5s-1.7-.3-2.1-1c-.5-.6-.7-1.6-.7-2.8s.2-2,.6-2.8c.3-.7,1.1-1.1,2.2-1.1s1.8.3,2.3,1c.5.6.7,1.6.7,2.8s0,1.5-.3,2.1Z"/>
<path d="m185.8 9v9.9c0 1.2-1 2.1-2.1 2.1h-21.9v12h9.9c1.2 0 2.1 1 2.1 2.1v9.9h12v-21.9c0-1.2 1-2.1 2.1-2.1h9.9v-12h-12z"/>
</svg>
